<svg width="24" height="96" xmlns="http://www.w3.org/2000/svg">
 <g>
  <title>background</title>
  <rect x="-1" y="-1" width="24" height="96" id="canvas_background" fill="none"/>
 </g>

 <g>
  <title>Layer 1</title>
  <g id="svg_1"/>
  <path d="m0,12.18129c7.60775,-8.26369 15.5923,-8.24374 23.95467,0.07233c-9.13965,9.91428 -16.81149,7.20611 -23.95467,-0.07233l0,0zm11.97758,-1.34967c-1.0023,0 -1.82297,0.68529 -1.82297,1.52684c0,0.83041 0.82072,1.51371 1.82297,1.51371c1.01491,0 1.8346,-0.68335 1.8346,-1.51371c0,-0.84155 -0.81969,-1.52684 -1.8346,-1.52684l0,0zm0,-1.76467c-2.09238,0 -3.79831,1.47489 -3.79831,3.29198c0,1.80491 1.70593,3.27985 3.79831,3.27985c2.09484,0 3.7993,-1.47494 3.7993,-3.27985c-0.0005,-1.81709 -1.70495,-3.29198 -3.7993,-3.29198z" fill="#BBBBBB" id="svg_2" stroke="null"/>
  <path d="m0,36.18129c7.60775,-8.26369 15.5923,-8.24373 23.95467,0.07233c-9.13965,9.91428 -16.81149,7.20611 -23.95467,-0.07233l0,0zm11.97758,-1.34967c-1.0023,0 -1.82297,0.68529 -1.82297,1.52684c0,0.83041 0.82072,1.51371 1.82297,1.51371c1.01491,0 1.8346,-0.68335 1.8346,-1.51371c0,-0.84155 -0.81969,-1.52684 -1.8346,-1.52684l0,0zm0,-1.76467c-2.09238,0 -3.79831,1.47489 -3.79831,3.29198c0,1.80491 1.70593,3.27985 3.79831,3.27985c2.09484,0 3.7993,-1.47494 3.7993,-3.27985c-0.0005,-1.81709 -1.70495,-3.29198 -3.7993,-3.29198z" fill="#E50000" id="svg_7" stroke="null"/>
  <path d="m0,60.18129c7.60775,-8.26369 15.5923,-8.24373 23.95467,0.07233c-9.13965,9.91428 -16.81149,7.20611 -23.95467,-0.07233l0,0zm11.97758,-1.34967c-1.0023,0 -1.82297,0.68529 -1.82297,1.52684c0,0.83041 0.82072,1.51371 1.82297,1.51371c1.01491,0 1.8346,-0.68335 1.8346,-1.51371c0,-0.84155 -0.81969,-1.52684 -1.8346,-1.52684l0,0zm0,-1.76467c-2.09238,0 -3.79831,1.47489 -3.79831,3.29198c0,1.80491 1.70593,3.27985 3.79831,3.27985c2.09484,0 3.7993,-1.47494 3.7993,-3.27985c-0.0005,-1.81709 -1.70495,-3.29198 -3.7993,-3.29198z" fill="#78B2F2" id="svg_8" stroke="null"/>
   <path d="m0,84.181289c7.60775,-8.26369 15.5923,-8.24373 23.95467,0.07233c-9.13965,9.91428 -16.81149,7.20611 -23.95467,-0.07233l0,0zm11.97758,-1.34967c-1.0023,0 -1.82297,0.68529 -1.82297,1.52684c0,0.83041 0.82072,1.51371 1.82297,1.51371c1.01491,0 1.8346,-0.68335 1.8346,-1.51371c0,-0.84155 -0.81969,-1.52684 -1.8346,-1.52684l0,0zm0,-1.76467c-2.09238,0 -3.79831,1.47489 -3.79831,3.29198c0,1.80491 1.70593,3.27985 3.79831,3.27985c2.09484,0 3.7993,-1.47494 3.7993,-3.27985c-0.0005,-1.81709 -1.70495,-3.29198 -3.7993,-3.29198z" fill="#FFD480" id="svg_3" stroke="null"/>
 </g>
</svg>