<svg width="24" height="72" xmlns="http://www.w3.org/2000/svg">

 <g>
  <title>background</title>
  <rect fill="none" id="canvas_background" height="72" width="24" y="0" x="0"/>
 </g>
 <g>
  <title>Layer 1</title>
  <g id="svg_1"/>
  <path stroke="null" id="svg_2" fill="#BBBBBB" d="m0,12.181294c7.607754,-8.263692 15.592298,-8.243739 23.95467,0.072326c-9.139649,9.914279 -16.81149,7.206115 -23.95467,-0.072326l0,0zm11.977581,-1.349674c-1.002298,0 -1.822974,0.685288 -1.822974,1.526838c0,0.830412 0.820725,1.513709 1.822974,1.513709c1.014909,0 1.8346,-0.683345 1.8346,-1.513709c0,-0.84155 -0.819691,-1.526838 -1.8346,-1.526838l0,0zm0,-1.764667c-2.092378,0 -3.79831,1.474892 -3.79831,3.291979c0,1.804905 1.705932,3.279845 3.79831,3.279845c2.094842,0 3.799296,-1.47494 3.799296,-3.279845c-0.000493,-1.817087 -1.704947,-3.291979 -3.799296,-3.291979z"/>
  <path stroke="null" id="svg_7" fill="#66cc00" d="m0,36.181294c7.607754,-8.263692 15.592298,-8.243739 23.95467,0.072326c-9.139649,9.914279 -16.81149,7.206115 -23.95467,-0.072326l0,0zm11.977581,-1.349674c-1.002298,0 -1.822974,0.685288 -1.822974,1.526838c0,0.830412 0.820725,1.513709 1.822974,1.513709c1.014909,0 1.8346,-0.683345 1.8346,-1.513709c0,-0.84155 -0.819691,-1.526838 -1.8346,-1.526838l0,0zm0,-1.764667c-2.092378,0 -3.79831,1.474892 -3.79831,3.291979c0,1.804905 1.705932,3.279845 3.79831,3.279845c2.094842,0 3.799296,-1.47494 3.799296,-3.279845c-0.000493,-1.817087 -1.704947,-3.291979 -3.799296,-3.291979z"/>
  <path stroke="null" id="svg_8" fill="#78B2F2" d="m0,60.181294c7.607754,-8.263692 15.592298,-8.243739 23.95467,0.072326c-9.139649,9.914279 -16.81149,7.206115 -23.95467,-0.072326l0,0zm11.977581,-1.349674c-1.002298,0 -1.822974,0.685288 -1.822974,1.526838c0,0.830412 0.820725,1.513709 1.822974,1.513709c1.014909,0 1.8346,-0.683345 1.8346,-1.513709c0,-0.84155 -0.819691,-1.526838 -1.8346,-1.526838l0,0zm0,-1.764667c-2.092378,0 -3.79831,1.474892 -3.79831,3.291979c0,1.804905 1.705932,3.279845 3.79831,3.279845c2.094842,0 3.799296,-1.47494 3.799296,-3.279845c-0.000493,-1.817087 -1.704947,-3.291979 -3.799296,-3.291979z"/>
 </g>
</svg>